<svg width="128" height="128" viewBox="0 0 128 128" fill="none" xmlns="http://www.w3.org/2000/svg">
<rect x="0.0107422" y="0.010498" width="127.581" height="127.581" rx="30" fill="white"/>
<g filter="url(#filter0_d_52_160)">
<path d="M64 106C87.196 106 106 87.196 106 64C106 40.804 87.196 22 64 22C40.804 22 22 40.804 22 64C22 87.196 40.804 106 64 106Z" fill="black"/>
</g>
<path d="M64 106C87.196 106 106 87.196 106 64C106 40.804 87.196 22 64 22C40.804 22 22 40.804 22 64C22 87.196 40.804 106 64 106Z" stroke="#BABABA" stroke-opacity="0.5" stroke-width="2"/>
<path d="M64 106C87.196 106 106 87.196 106 64C106 40.804 87.196 22 64 22C40.804 22 22 40.804 22 64C22 87.196 40.804 106 64 106Z" fill="url(#paint0_linear_52_160)"/>
<g filter="url(#filter1_d_52_160)">
<path d="M25 64.0255C25 81.2942 36.1637 95.8795 51.6663 101.051C53.6163 101.393 54.3475 100.222 54.3475 99.1982C54.3475 98.2705 54.2987 95.1977 54.2987 91.9292C44.5 93.733 41.965 89.5375 41.185 87.343C40.7463 86.221 38.845 82.7575 37.1875 81.8305C35.8225 81.0985 33.8725 79.294 37.1388 79.2452C40.21 79.1965 42.4037 82.0742 43.135 83.245C46.645 89.1475 52.2513 87.49 54.4938 86.4647C54.835 83.9282 55.8587 82.2197 56.98 81.2447C48.3025 80.2697 39.235 76.9037 39.235 61.9772C39.235 57.7323 40.7463 54.22 43.2325 51.4885C42.8425 50.5135 41.4775 46.513 43.6225 41.146C43.6225 41.146 46.8888 40.1222 54.3475 45.1465C57.4675 44.269 60.7825 43.8295 64.0975 43.8295C67.4125 43.8295 70.7275 44.269 73.8475 45.1465C81.3062 40.0735 84.5725 41.1467 84.5725 41.1467C86.7175 46.5122 85.3525 50.512 84.9625 51.4877C87.4487 54.2192 88.96 57.6827 88.96 61.9757C88.96 76.9517 79.8438 80.2682 71.1663 81.2447C72.58 82.4642 73.7988 84.8057 73.7988 88.4642C73.7988 93.6842 73.75 97.879 73.75 99.1967C73.75 100.22 74.4812 101.439 76.4312 101.049C91.8363 95.8802 103 81.2462 103 64.0262C103 42.463 85.5475 25 64 25C42.4525 25 25 42.4637 25 64.0255Z" fill="url(#paint1_linear_52_160)"/>
</g>
<path d="M25 64.0255C25 81.2942 36.1637 95.8795 51.6663 101.051C53.6163 101.393 54.3475 100.222 54.3475 99.1982C54.3475 98.2705 54.2987 95.1977 54.2987 91.9292C44.5 93.733 41.965 89.5375 41.185 87.343C40.7463 86.221 38.845 82.7575 37.1875 81.8305C35.8225 81.0985 33.8725 79.294 37.1388 79.2452C40.21 79.1965 42.4037 82.0742 43.135 83.245C46.645 89.1475 52.2513 87.49 54.4938 86.4647C54.835 83.9282 55.8587 82.2197 56.98 81.2447C48.3025 80.2697 39.235 76.9037 39.235 61.9772C39.235 57.7323 40.7463 54.22 43.2325 51.4885C42.8425 50.5135 41.4775 46.513 43.6225 41.146C43.6225 41.146 46.8888 40.1222 54.3475 45.1465C57.4675 44.269 60.7825 43.8295 64.0975 43.8295C67.4125 43.8295 70.7275 44.269 73.8475 45.1465C81.3062 40.0735 84.5725 41.1467 84.5725 41.1467C86.7175 46.5122 85.3525 50.512 84.9625 51.4877C87.4487 54.2192 88.96 57.6827 88.96 61.9757C88.96 76.9517 79.8438 80.2682 71.1663 81.2447C72.58 82.4642 73.7988 84.8057 73.7988 88.4642C73.7988 93.6842 73.75 97.879 73.75 99.1967C73.75 100.22 74.4812 101.439 76.4312 101.049C91.8363 95.8802 103 81.2462 103 64.0262C103 42.463 85.5475 25 64 25C42.4525 25 25 42.4637 25 64.0255Z" fill="url(#paint2_linear_52_160)"/>
<g filter="url(#filter2_i_52_160)">
<path d="M25 64.0255C25 81.2942 36.1637 95.8795 51.6663 101.051C53.6163 101.393 54.3475 100.222 54.3475 99.1982C54.3475 98.2705 54.2987 95.1977 54.2987 91.9292C44.5 93.733 41.965 89.5375 41.185 87.343C40.7463 86.221 38.845 82.7575 37.1875 81.8305C35.8225 81.0985 33.8725 79.294 37.1388 79.2452C40.21 79.1965 42.4037 82.0742 43.135 83.245C46.645 89.1475 52.2513 87.49 54.4938 86.4647C54.835 83.9282 55.8587 82.2197 56.98 81.2447C48.3025 80.2697 39.235 76.9037 39.235 61.9772C39.235 57.7323 40.7463 54.22 43.2325 51.4885C42.8425 50.5135 41.4775 46.513 43.6225 41.146C43.6225 41.146 46.8888 40.1222 54.3475 45.1465C57.4675 44.269 60.7825 43.8295 64.0975 43.8295C67.4125 43.8295 70.7275 44.269 73.8475 45.1465C81.3062 40.0735 84.5725 41.1467 84.5725 41.1467C86.7175 46.5122 85.3525 50.512 84.9625 51.4877C87.4487 54.2192 88.96 57.6827 88.96 61.9757C88.96 76.9517 79.8438 80.2682 71.1663 81.2447C72.58 82.4642 73.7988 84.8057 73.7988 88.4642C73.7988 93.6842 73.75 97.879 73.75 99.1967C73.75 100.22 74.4812 101.439 76.4312 101.049C91.8363 95.8802 103 81.2462 103 64.0262C103 42.463 85.5475 25 64 25C42.4525 25 25 42.4637 25 64.0255Z" fill="url(#paint3_linear_52_160)"/>
</g>
<defs>
<filter id="filter0_d_52_160" x="18" y="20" width="92" height="92" filterUnits="userSpaceOnUse" color-interpolation-filters="sRGB">
<feFlood flood-opacity="0" result="BackgroundImageFix"/>
<feColorMatrix in="SourceAlpha" type="matrix" values="0 0 0 0 0 0 0 0 0 0 0 0 0 0 0 0 0 0 127 0" result="hardAlpha"/>
<feOffset dy="2"/>
<feGaussianBlur stdDeviation="2"/>
<feColorMatrix type="matrix" values="0 0 0 0 0 0 0 0 0 0 0 0 0 0 0 0 0 0 0.240942 0"/>
<feBlend mode="normal" in2="BackgroundImageFix" result="effect1_dropShadow_52_160"/>
<feBlend mode="normal" in="SourceGraphic" in2="effect1_dropShadow_52_160" result="shape"/>
</filter>
<filter id="filter1_d_52_160" x="21" y="22" width="86" height="84.1238" filterUnits="userSpaceOnUse" color-interpolation-filters="sRGB">
<feFlood flood-opacity="0" result="BackgroundImageFix"/>
<feColorMatrix in="SourceAlpha" type="matrix" values="0 0 0 0 0 0 0 0 0 0 0 0 0 0 0 0 0 0 127 0" result="hardAlpha"/>
<feOffset dy="1"/>
<feGaussianBlur stdDeviation="2"/>
<feColorMatrix type="matrix" values="0 0 0 0 1 0 0 0 0 1 0 0 0 0 1 0 0 0 0.529297 0"/>
<feBlend mode="normal" in2="BackgroundImageFix" result="effect1_dropShadow_52_160"/>
<feBlend mode="normal" in="SourceGraphic" in2="effect1_dropShadow_52_160" result="shape"/>
</filter>
<filter id="filter2_i_52_160" x="25" y="25" width="78" height="76.1238" filterUnits="userSpaceOnUse" color-interpolation-filters="sRGB">
<feFlood flood-opacity="0" result="BackgroundImageFix"/>
<feBlend mode="normal" in="SourceGraphic" in2="BackgroundImageFix" result="shape"/>
<feColorMatrix in="SourceAlpha" type="matrix" values="0 0 0 0 0 0 0 0 0 0 0 0 0 0 0 0 0 0 127 0" result="hardAlpha"/>
<feOffset/>
<feGaussianBlur stdDeviation="1"/>
<feComposite in2="hardAlpha" operator="arithmetic" k2="-1" k3="1"/>
<feColorMatrix type="matrix" values="0 0 0 0 0.258824 0 0 0 0 0.137255 0 0 0 0 0.431373 0 0 0 0.70355 0"/>
<feBlend mode="normal" in2="shape" result="effect1_innerShadow_52_160"/>
</filter>
<linearGradient id="paint0_linear_52_160" x1="64" y1="22" x2="64" y2="106" gradientUnits="userSpaceOnUse">
<stop stop-color="#FEFEFE"/>
<stop offset="1" stop-color="#E0E0E0"/>
</linearGradient>
<linearGradient id="paint1_linear_52_160" x1="64" y1="101.124" x2="64" y2="25" gradientUnits="userSpaceOnUse">
<stop stop-color="#492779"/>
<stop offset="1" stop-color="#892793"/>
</linearGradient>
<linearGradient id="paint2_linear_52_160" x1="64" y1="101.124" x2="64" y2="25" gradientUnits="userSpaceOnUse">
<stop stop-color="#492779"/>
<stop offset="1" stop-color="#892793"/>
</linearGradient>
<linearGradient id="paint3_linear_52_160" x1="64" y1="101.124" x2="64" y2="25" gradientUnits="userSpaceOnUse">
<stop stop-color="#492779"/>
<stop offset="1" stop-color="#892793"/>
</linearGradient>
</defs>
</svg>
