<svg width="34" height="28" viewBox="0 0 34 28" fill="none" xmlns="http://www.w3.org/2000/svg">
<path fill-rule="evenodd" clip-rule="evenodd" d="M34 25.6229C34 26.5557 33.0438 27.7479 31.875 27.7479H16.9894C15.844 27.7479 14.8771 26.798 14.875 25.625H2.125C0.9775 25.625 0 24.4329 0 23.5C0 17.9028 6.375 15 6.375 15C6.375 15 6.86163 14.1309 6.375 12.875C4.58787 11.5554 4.12675 11.6213 4.25 6.5C4.37325 1.35963 7.15487 0.125 9.5625 0.125C11.9701 0.125 14.7517 1.3575 14.875 6.5C14.9983 11.6213 14.5371 11.5554 12.75 12.875C12.2634 14.1287 12.75 15 12.75 15C12.75 15 16.0416 16.5109 17.8925 19.437C19.5415 17.9091 21.25 17.1229 21.25 17.1229C21.25 17.1229 21.7366 16.2537 21.25 14.9979C19.4629 13.6804 19.0018 13.7441 19.125 8.62288C19.2482 3.4825 22.0299 2.24787 24.4375 2.24787C26.8451 2.24787 29.6161 3.4825 29.7394 8.62288C29.8647 13.7441 29.4036 13.6804 27.6144 14.9979C27.1278 16.2516 27.6144 17.1229 27.6144 17.1229C27.6144 17.1229 34 20.0256 34 25.6229Z" fill="white"/>
</svg>
