<svg width="37" height="53" viewBox="0 0 37 53" fill="none" xmlns="http://www.w3.org/2000/svg">
<g opacity="0.5">
<path opacity="0.5" fill-rule="evenodd" clip-rule="evenodd" d="M13.6914 2.83407C17.1983 5.7857 17.6506 11.0246 14.7012 14.536C13.7174 15.7072 12.4295 16.5834 10.9796 17.0679C9.52965 17.5525 7.97418 17.6264 6.4849 17.2817C5.54286 18.6325 5.00735 20.0291 5.26041 21.3071C5.38939 21.9576 4.95266 21.8955 4.72654 21.6013C3.5943 20.1288 2.28245 17.8162 2.37388 14.9511C-0.540403 11.9292 -0.759179 7.13078 2.00082 3.84574C4.9502 0.334335 10.1837 -0.117568 13.6906 2.83407" fill="#DBE7F0"/>
<path opacity="0.5" fill-rule="evenodd" clip-rule="evenodd" d="M11.2938 8.2192H10.302L10.3118 7.73707C10.3118 7.09968 9.73792 5.27332 8.83996 5.27332C8.55425 5.27332 8.2661 5.4204 8.07508 5.64921C7.99079 5.74203 7.92852 5.85269 7.8929 5.97295C7.85728 6.09322 7.84922 6.22 7.86936 6.34381C7.99181 7.07109 8.00649 7.46333 7.55915 7.95363C7.06936 8.48888 6.83264 8.7136 6.38693 8.7136H5.40489C4.88489 8.71033 4.42529 9.17121 4.42529 9.69256V11.657C4.42529 12.1784 4.88489 12.6393 5.40489 12.6393H6.24897L6.95672 13.0617C7.03407 13.1068 7.12193 13.1305 7.2114 13.1304H10.3159C10.871 13.1304 11.7094 12.8852 11.7869 12.207L12.2685 9.28563C12.2783 9.2464 12.2783 9.21696 12.2783 9.18754C12.262 8.61226 11.8661 8.22002 11.2971 8.22002H11.2922L11.2938 8.2192ZM11.2938 12.1482C11.2693 12.4865 10.6693 12.6385 10.3118 12.6385H7.20652L6.38693 12.1482V9.20064C7.05387 9.20064 7.42201 8.83291 7.9216 8.27723C8.52568 7.6096 8.48162 7.01879 8.35427 6.24902C8.31509 6.00387 8.59915 5.75871 8.84405 5.75871C9.25221 5.75871 9.82526 7.09886 9.82526 7.72236L9.81547 8.22902C9.81547 8.56815 9.97874 8.70542 10.3159 8.70542H11.2971C11.6073 8.70542 11.7787 8.88275 11.7869 9.19572L11.2971 12.1433L11.2922 12.1482H11.2938Z" fill="#27363A"/>
<path opacity="0.5" fill-rule="evenodd" clip-rule="evenodd" d="M35.9895 36.178C35.9895 32.4893 34.7095 29.1013 32.5724 26.4291C30.8442 24.6134 28.9544 25.7468 28.4336 34.2168C27.8083 44.3759 22.4662 37.5917 18.2083 42.3762C13.9609 47.1518 4.07111 38.4685 6.62459 43.5448C9.25316 48.456 14.4287 51.7982 20.3854 51.7982C29.0026 51.7982 35.9895 44.8049 35.9895 36.178Z" fill="#4D595D"/>
<path opacity="0.5" fill-rule="evenodd" clip-rule="evenodd" d="M20.3847 20.5586C29.0027 20.5586 35.9888 27.552 35.9888 36.1781C35.9888 44.805 29.0035 51.7983 20.3855 51.7983C11.7675 51.7983 4.78223 44.805 4.78223 36.1781C4.78223 27.552 11.7675 20.5586 20.3855 20.5586H20.3847Z" stroke="#DBE7F0" stroke-width="1.097" stroke-linecap="round" stroke-linejoin="round"/>
<path opacity="0.5" fill-rule="evenodd" clip-rule="evenodd" d="M20.3847 20.5586C29.0027 20.5586 35.9888 27.552 35.9888 36.1781C35.9888 44.805 29.0035 51.7983 20.3855 51.7983C11.7675 51.7983 4.78223 44.805 4.78223 36.1781C4.78223 27.552 11.7675 20.5586 20.3855 20.5586H20.3847Z" stroke="#DBE7F0" stroke-width="1.097" stroke-linecap="round" stroke-linejoin="round"/>
<path opacity="0.5" d="M14.333 50.58C15.4563 47.7035 17.751 43.6609 22.2122 41.3851C27.5428 38.6672 31.3616 40.9193 35.3184 40.7199M6.01221 30.0885C8.99997 31.4 12.6408 32.6601 15.6057 32.6601C21.791 32.6601 23.1975 28.8602 30.5061 28.7197C31.8245 28.6952 33.0122 28.6788 34.0702 28.6707L6.01221 30.0885Z" stroke="#DBE7F0" stroke-width="1.097" stroke-linecap="round" stroke-linejoin="round"/>
<path opacity="0.5" d="M16.3536 51.272C19.0638 48.3931 25.7006 42.5691 33.5756 44.5254H33.5773M7.24997 44.6145C9.6565 44.2843 13.6124 43.24 16.8712 39.9779C21.9324 34.9114 23.3365 34.7725 26.4303 34.7725C28.9634 34.7725 32.7242 37.4152 35.9324 37.5206L7.24997 44.6145ZM14.0834 21.884C17.3324 22.3874 21.2557 23.4064 23.7593 25.4829C25.7144 27.1049 29.0883 26.993 32.4483 26.2698L14.0834 21.884ZM10.8492 23.8142C12.0467 24.0741 13.1496 24.356 13.8663 24.588C16.2312 25.3529 18.3177 25.6316 17.7153 27.3117C16.9495 29.4445 13.41 28.2408 11.0459 27.4751C10.2704 27.2251 9.30058 26.7642 8.35201 26.2347L10.8492 23.8142ZM4.88428 34.3827C8.00427 34.8288 12.3488 35.8797 12.7945 38.2887C13.1014 39.9558 9.6516 40.8906 5.681 41.4169L4.88428 34.3827Z" stroke="#DBE7F0" stroke-width="1.097" stroke-linecap="round" stroke-linejoin="round"/>
</g>
</svg>
